<svg xmlns="http://www.w3.org/2000/svg" width="3840" height="2160" viewBox="0 0 3840 2160"><defs><radialGradient id="bg"><stop offset="0" stop-color="#33250d"/><stop offset=".45" stop-color="#120f08"/><stop offset="1" stop-color="#030303"/></radialGradient><linearGradient id="gold" x1="0" x2="1"><stop stop-color="#7c5d20"/><stop offset=".45" stop-color="#f4d477"/><stop offset="1" stop-color="#9d7525"/></linearGradient></defs><rect width="3840" height="2160" fill="url(#bg)"/><circle cx="1920" cy="1030" r="650" fill="none" stroke="#7a5b1d" stroke-width="4" opacity=".55"/><circle cx="1920" cy="1030" r="520" fill="none" stroke="#c79b3b" stroke-width="3" opacity=".35"/><path d="M1920 390 C1850 590 1760 720 1595 850 M1920 390 C1990 590 2080 720 2245 850 M1920 500 L1920 1510 M1920 780 C1770 850 1670 990 1590 1150 M1920 780 C2070 850 2170 990 2250 1150 M1920 1510 C1760 1580 1640 1710 1510 1890 M1920 1510 C2080 1580 2200 1710 2330 1890" fill="none" stroke="url(#gold)" stroke-width="25" stroke-linecap="round"/><path d="M1170 820c-170 65-275 180-322 344 116-88 215-120 334-103-78 70-132 142-158 239 114-92 227-137 350-138-61-102-127-215-204-342z" fill="#d7ad4d" opacity=".72"/><path d="M2670 820c170 65 275 180 322 344-116-88-215-120-334-103 78 70 132 142 158 239-114-92-227-137-350-138 61-102 127-215 204-342z" fill="#d7ad4d" opacity=".72"/><text x="1920" y="1940" text-anchor="middle" fill="#f0cf70" font-family="sans-serif" font-size="112" font-weight="700" letter-spacing="34">RAH OS</text><text x="1920" y="2040" text-anchor="middle" fill="#9d7d38" font-family="sans-serif" font-size="38" letter-spacing="17">GOLD SHELL • RAVEN SYSTEM</text></svg>
